<svg width="32" height="32" viewBox="0 0 32 32" fill="none" xmlns="http://www.w3.org/2000/svg">
<g clip-path="url(#clip0_214_348)">
<path d="M32 16.0084C32 7.15591 24.8441 0 16.0084 0C7.1727 0 0 7.15591 0 16.0084C0 24.8609 7.15591 32.0168 16.0084 32.0168C24.8609 32.0168 32 24.8441 32 16.0084Z" fill="#9391F7"/>
<path d="M13.0188 16.7811C14.3963 16.5627 15.3201 15.2693 15.1018 13.8919C14.8834 12.5144 13.59 11.5905 12.2125 11.8089C10.8351 12.0273 9.91122 13.3207 10.1296 14.6982C10.3648 16.0756 11.6582 16.9995 13.0188 16.7811ZM19.6036 16.7811C20.981 16.5627 21.9049 15.2693 21.6866 13.8919C21.4682 12.5144 20.1747 11.5905 18.7973 11.8089C17.4199 12.0273 16.496 13.3207 16.7144 14.6982C16.9327 16.0756 18.2262 16.9995 19.6036 16.7811Z" fill="white"/>
<path d="M15.9074 3.91391C9.07065 3.91391 3.52734 9.558 3.52734 16.5123H6.68535C6.68535 11.2882 10.784 7.07191 15.8906 7.07191C21.014 7.07191 25.0958 11.305 25.0958 16.5123H28.2539C28.2874 9.558 22.7441 3.91391 15.9074 3.91391Z" fill="white"/>
</g>
<defs>
<clipPath id="clip0_214_348">
<rect width="32" height="32" fill="white"/>
</clipPath>
</defs>
</svg>
