<svg width="32" height="32" viewBox="0 0 32 32" fill="none" xmlns="http://www.w3.org/2000/svg">
<path d="M16 32C24.8667 32 32 24.8667 32 16C32 7.13328 24.8667 0 16 0C7.13328 0 0 7.13328 0 16C0 24.8667 7.13328 32 16 32Z" fill="#2775CA"/>
<path d="M20.5 18.0622C20.5 16.0291 19.2463 15.332 16.7388 15.0416C14.9477 14.8092 14.5895 14.3445 14.5895 13.5311C14.5895 12.7177 15.1866 12.1951 16.3806 12.1951C17.4552 12.1951 18.0523 12.5436 18.3507 13.415C18.4105 13.5892 18.5896 13.7054 18.7687 13.7054H19.7238C19.9627 13.7054 20.1418 13.5311 20.1418 13.2988V13.2407C19.9029 11.9626 18.8283 10.9751 17.4552 10.859V9.46482C17.4552 9.23241 17.2761 9.05814 16.9776 9H16.0821C15.8433 9 15.6642 9.17427 15.6044 9.46482V10.8009C13.8133 11.0333 12.6791 12.1951 12.6791 13.6474C12.6791 15.5644 13.8731 16.3195 16.3806 16.61C18.0523 16.9004 18.5896 17.249 18.5896 18.1785C18.5896 19.108 17.7537 19.7469 16.6194 19.7469C15.0671 19.7469 14.5298 19.1078 14.3507 18.2365C14.2911 18.0042 14.1119 17.8879 13.9328 17.8879H12.9178C12.6791 17.8879 12.5 18.0622 12.5 18.2946V18.3528C12.7387 19.8049 13.694 20.8506 15.6642 21.1411V22.5353C15.6642 22.7676 15.8433 22.9419 16.1417 23H17.0372C17.2761 23 17.4552 22.8257 17.515 22.5353V21.1411C19.306 20.8506 20.5 19.6307 20.5 18.0622Z" fill="white"/>
<path d="M13.033 24.0925C8.49536 22.4741 6.16829 17.4451 7.85547 12.9942C8.72811 10.5664 10.6479 8.71673 13.033 7.84967C13.2658 7.73411 13.3821 7.5607 13.3821 7.27159V6.46238C13.3821 6.23112 13.2658 6.05771 13.033 6C12.9748 6 12.8585 6 12.8003 6.05771C7.27367 7.79182 4.2485 13.6301 5.99376 19.1214C7.04092 22.3584 9.54252 24.844 12.8003 25.8844C13.033 26 13.2658 25.8844 13.3239 25.6532C13.3821 25.5955 13.3821 25.5376 13.3821 25.4221V24.6127C13.3821 24.4393 13.2076 24.2082 13.033 24.0925ZM19.1997 6.05771C18.967 5.94215 18.7342 6.05771 18.6761 6.28897C18.6179 6.34682 18.6179 6.40453 18.6179 6.52023V7.32944C18.6179 7.5607 18.7924 7.79182 18.967 7.90752C23.5046 9.52594 25.8317 14.5549 24.1445 19.0058C23.2719 21.4336 21.3521 23.2833 18.967 24.1503C18.7342 24.2659 18.6179 24.4393 18.6179 24.7284V25.5376C18.6179 25.7689 18.7342 25.9423 18.967 26C19.0252 26 19.1415 26 19.1997 25.9423C24.7263 24.2082 27.7515 18.3699 26.0062 12.8786C24.9591 9.58379 22.3993 7.09818 19.1997 6.05771Z" fill="white"/>
</svg>
