<svg width="50" height="73" viewBox="0 0 50 73" fill="none" xmlns="http://www.w3.org/2000/svg">
<g clip-path="url(#clip0_2214_14240)">
<path d="M25.6488 18.0597C25.6488 15.1555 28.009 12.7895 30.9061 12.7895H40.3129V-0.0327148H35.6094H30.9061C20.9399 -0.0327148 12.8585 8.06879 12.8585 18.0597C12.8585 20.6668 13.4122 23.145 14.4021 25.3818C6.66185 28.6617 1.52219 35.6307 0.325365 44.4498C-1.0728 54.1325 2.79732 64.5774 11.2255 69.6234C18.7476 74.3722 30.5089 74.0582 36.8623 67.4703V71.8436H49.9546V23.3298H30.9115C28.0146 23.3298 25.6488 20.964 25.6488 18.0597ZM37.1531 36.1577V48.3352C37.1531 55.0631 31.7115 60.5126 25.0058 60.5126C18.3002 60.5126 12.8585 55.0574 12.8585 48.3352C12.8585 41.6129 18.3002 36.1577 25.0058 36.1577H37.1531Z" fill="#BFF009"/>
</g>
<defs>
<clipPath id="clip0_2214_14240">
<rect width="50" height="72.8814" fill="white"/>
</clipPath>
</defs>
</svg>
